<?xml version="1.0" encoding="utf-8" standalone="no"?>
<!DOCTYPE svg PUBLIC "-//W3C//DTD SVG 1.1//EN"
  "http://www.w3.org/Graphics/SVG/1.1/DTD/svg11.dtd">
<svg xmlns:xlink="http://www.w3.org/1999/xlink" width="504pt" height="302.4pt" viewBox="0 0 504 302.4" xmlns="http://www.w3.org/2000/svg" version="1.1">
 <metadata>
  <rdf:RDF xmlns:dc="http://purl.org/dc/elements/1.1/" xmlns:cc="http://creativecommons.org/ns#" xmlns:rdf="http://www.w3.org/1999/02/22-rdf-syntax-ns#">
   <cc:Work>
    <dc:type rdf:resource="http://purl.org/dc/dcmitype/StillImage"/>
    <dc:date>1980-01-01T00:00:00+00:00</dc:date>
    <dc:format>image/svg+xml</dc:format>
    <dc:creator>
     <cc:Agent>
      <dc:title>Matplotlib v3.10.9, https://matplotlib.org/</dc:title>
     </cc:Agent>
    </dc:creator>
   </cc:Work>
  </rdf:RDF>
 </metadata>
 <defs>
  <style type="text/css">*{stroke-linejoin: round; stroke-linecap: butt}</style>
 </defs>
 <g id="figure_1">
  <g id="patch_1">
   <path d="M 0 302.4 
L 504 302.4 
L 504 0 
L 0 0 
z
" style="fill: #fcfcfb"/>
  </g>
  <g id="axes_1">
   <g id="patch_2">
    <path d="M 44.203125 261.24375 
L 493.2 261.24375 
L 493.2 33.918125 
L 44.203125 33.918125 
z
" style="fill: #fcfcfb"/>
   </g>
   <g id="line2d_1">
    <path d="M 44.203125 62.333828 
L 493.2 62.333828 
" clip-path="url(#p3cdd677970)" style="fill: none; stroke-dasharray: 4.44,1.92; stroke-dashoffset: 0; stroke: #dcdcd8; stroke-width: 1.2"/>
   </g>
   <g id="line2d_2">
    <path d="M 246.024953 261.24375 
L 246.024953 33.918125 
" clip-path="url(#p3cdd677970)" style="fill: none; stroke: #eb6834; stroke-opacity: 0.35; stroke-linecap: square"/>
   </g>
   <g id="matplotlib.axis_1">
    <g id="xtick_1">
     <g id="line2d_3">
      <path d="M 75.950379 261.24375 
L 75.950379 33.918125 
" clip-path="url(#p3cdd677970)" style="fill: none; stroke: #dcdcd8; stroke-opacity: 0.7; stroke-width: 0.6; stroke-linecap: square"/>
     </g>
     <g id="line2d_4">
      <defs>
       <path id="me0d2d7febf" d="M 0 0 
L 0 3.5 
" style="stroke: #52514e; stroke-width: 0.8"/>
      </defs>
      <g>
       <use xlink:href="#me0d2d7febf" x="75.950379" y="261.24375" style="fill: #52514e; stroke: #52514e; stroke-width: 0.8"/>
      </g>
     </g>
     <g id="text_1">
      <!-- 5 -->
      <g style="fill: #52514e" transform="translate(72.769129 275.842188) scale(0.1 -0.1)">
       <defs>
        <path id="DejaVuSans-35" d="M 691 4666 
L 3169 4666 
L 3169 4134 
L 1269 4134 
L 1269 2991 
Q 1406 3038 1543 3061 
Q 1681 3084 1819 3084 
Q 2600 3084 3056 2656 
Q 3513 2228 3513 1497 
Q 3513 744 3044 326 
Q 2575 -91 1722 -91 
Q 1428 -91 1123 -41 
Q 819 9 494 109 
L 494 744 
Q 775 591 1075 516 
Q 1375 441 1709 441 
Q 2250 441 2565 725 
Q 2881 1009 2881 1497 
Q 2881 1984 2565 2268 
Q 2250 2553 1709 2553 
Q 1456 2553 1204 2497 
Q 953 2441 691 2322 
L 691 4666 
z
" transform="scale(0.015625)"/>
       </defs>
       <use xlink:href="#DejaVuSans-35"/>
      </g>
     </g>
    </g>
    <g id="xtick_2">
     <g id="line2d_5">
      <path d="M 132.641903 261.24375 
L 132.641903 33.918125 
" clip-path="url(#p3cdd677970)" style="fill: none; stroke: #dcdcd8; stroke-opacity: 0.7; stroke-width: 0.6; stroke-linecap: square"/>
     </g>
     <g id="line2d_6">
      <g>
       <use xlink:href="#me0d2d7febf" x="132.641903" y="261.24375" style="fill: #52514e; stroke: #52514e; stroke-width: 0.8"/>
      </g>
     </g>
     <g id="text_2">
      <!-- 10 -->
      <g style="fill: #52514e" transform="translate(126.279403 275.842188) scale(0.1 -0.1)">
       <defs>
        <path id="DejaVuSans-31" d="M 794 531 
L 1825 531 
L 1825 4091 
L 703 3866 
L 703 4441 
L 1819 4666 
L 2450 4666 
L 2450 531 
L 3481 531 
L 3481 0 
L 794 0 
L 794 531 
z
" transform="scale(0.015625)"/>
        <path id="DejaVuSans-30" d="M 2034 4250 
Q 1547 4250 1301 3770 
Q 1056 3291 1056 2328 
Q 1056 1369 1301 889 
Q 1547 409 2034 409 
Q 2525 409 2770 889 
Q 3016 1369 3016 2328 
Q 3016 3291 2770 3770 
Q 2525 4250 2034 4250 
z
M 2034 4750 
Q 2819 4750 3233 4129 
Q 3647 3509 3647 2328 
Q 3647 1150 3233 529 
Q 2819 -91 2034 -91 
Q 1250 -91 836 529 
Q 422 1150 422 2328 
Q 422 3509 836 4129 
Q 1250 4750 2034 4750 
z
" transform="scale(0.015625)"/>
       </defs>
       <use xlink:href="#DejaVuSans-31"/>
       <use xlink:href="#DejaVuSans-30" transform="translate(63.623047 0)"/>
      </g>
     </g>
    </g>
    <g id="xtick_3">
     <g id="line2d_7">
      <path d="M 189.333428 261.24375 
L 189.333428 33.918125 
" clip-path="url(#p3cdd677970)" style="fill: none; stroke: #dcdcd8; stroke-opacity: 0.7; stroke-width: 0.6; stroke-linecap: square"/>
     </g>
     <g id="line2d_8">
      <g>
       <use xlink:href="#me0d2d7febf" x="189.333428" y="261.24375" style="fill: #52514e; stroke: #52514e; stroke-width: 0.8"/>
      </g>
     </g>
     <g id="text_3">
      <!-- 15 -->
      <g style="fill: #52514e" transform="translate(182.970928 275.842188) scale(0.1 -0.1)">
       <use xlink:href="#DejaVuSans-31"/>
       <use xlink:href="#DejaVuSans-35" transform="translate(63.623047 0)"/>
      </g>
     </g>
    </g>
    <g id="xtick_4">
     <g id="line2d_9">
      <path d="M 246.024953 261.24375 
L 246.024953 33.918125 
" clip-path="url(#p3cdd677970)" style="fill: none; stroke: #dcdcd8; stroke-opacity: 0.7; stroke-width: 0.6; stroke-linecap: square"/>
     </g>
     <g id="line2d_10">
      <g>
       <use xlink:href="#me0d2d7febf" x="246.024953" y="261.24375" style="fill: #52514e; stroke: #52514e; stroke-width: 0.8"/>
      </g>
     </g>
     <g id="text_4">
      <!-- 20 -->
      <g style="fill: #52514e" transform="translate(239.662453 275.842188) scale(0.1 -0.1)">
       <defs>
        <path id="DejaVuSans-32" d="M 1228 531 
L 3431 531 
L 3431 0 
L 469 0 
L 469 531 
Q 828 903 1448 1529 
Q 2069 2156 2228 2338 
Q 2531 2678 2651 2914 
Q 2772 3150 2772 3378 
Q 2772 3750 2511 3984 
Q 2250 4219 1831 4219 
Q 1534 4219 1204 4116 
Q 875 4013 500 3803 
L 500 4441 
Q 881 4594 1212 4672 
Q 1544 4750 1819 4750 
Q 2544 4750 2975 4387 
Q 3406 4025 3406 3419 
Q 3406 3131 3298 2873 
Q 3191 2616 2906 2266 
Q 2828 2175 2409 1742 
Q 1991 1309 1228 531 
z
" transform="scale(0.015625)"/>
       </defs>
       <use xlink:href="#DejaVuSans-32"/>
       <use xlink:href="#DejaVuSans-30" transform="translate(63.623047 0)"/>
      </g>
     </g>
    </g>
    <g id="xtick_5">
     <g id="line2d_11">
      <path d="M 302.716477 261.24375 
L 302.716477 33.918125 
" clip-path="url(#p3cdd677970)" style="fill: none; stroke: #dcdcd8; stroke-opacity: 0.7; stroke-width: 0.6; stroke-linecap: square"/>
     </g>
     <g id="line2d_12">
      <g>
       <use xlink:href="#me0d2d7febf" x="302.716477" y="261.24375" style="fill: #52514e; stroke: #52514e; stroke-width: 0.8"/>
      </g>
     </g>
     <g id="text_5">
      <!-- 25 -->
      <g style="fill: #52514e" transform="translate(296.353977 275.842188) scale(0.1 -0.1)">
       <use xlink:href="#DejaVuSans-32"/>
       <use xlink:href="#DejaVuSans-35" transform="translate(63.623047 0)"/>
      </g>
     </g>
    </g>
    <g id="xtick_6">
     <g id="line2d_13">
      <path d="M 359.408002 261.24375 
L 359.408002 33.918125 
" clip-path="url(#p3cdd677970)" style="fill: none; stroke: #dcdcd8; stroke-opacity: 0.7; stroke-width: 0.6; stroke-linecap: square"/>
     </g>
     <g id="line2d_14">
      <g>
       <use xlink:href="#me0d2d7febf" x="359.408002" y="261.24375" style="fill: #52514e; stroke: #52514e; stroke-width: 0.8"/>
      </g>
     </g>
     <g id="text_6">
      <!-- 30 -->
      <g style="fill: #52514e" transform="translate(353.045502 275.842188) scale(0.1 -0.1)">
       <defs>
        <path id="DejaVuSans-33" d="M 2597 2516 
Q 3050 2419 3304 2112 
Q 3559 1806 3559 1356 
Q 3559 666 3084 287 
Q 2609 -91 1734 -91 
Q 1441 -91 1130 -33 
Q 819 25 488 141 
L 488 750 
Q 750 597 1062 519 
Q 1375 441 1716 441 
Q 2309 441 2620 675 
Q 2931 909 2931 1356 
Q 2931 1769 2642 2001 
Q 2353 2234 1838 2234 
L 1294 2234 
L 1294 2753 
L 1863 2753 
Q 2328 2753 2575 2939 
Q 2822 3125 2822 3475 
Q 2822 3834 2567 4026 
Q 2313 4219 1838 4219 
Q 1578 4219 1281 4162 
Q 984 4106 628 3988 
L 628 4550 
Q 988 4650 1302 4700 
Q 1616 4750 1894 4750 
Q 2613 4750 3031 4423 
Q 3450 4097 3450 3541 
Q 3450 3153 3228 2886 
Q 3006 2619 2597 2516 
z
" transform="scale(0.015625)"/>
       </defs>
       <use xlink:href="#DejaVuSans-33"/>
       <use xlink:href="#DejaVuSans-30" transform="translate(63.623047 0)"/>
      </g>
     </g>
    </g>
    <g id="xtick_7">
     <g id="line2d_15">
      <path d="M 416.099527 261.24375 
L 416.099527 33.918125 
" clip-path="url(#p3cdd677970)" style="fill: none; stroke: #dcdcd8; stroke-opacity: 0.7; stroke-width: 0.6; stroke-linecap: square"/>
     </g>
     <g id="line2d_16">
      <g>
       <use xlink:href="#me0d2d7febf" x="416.099527" y="261.24375" style="fill: #52514e; stroke: #52514e; stroke-width: 0.8"/>
      </g>
     </g>
     <g id="text_7">
      <!-- 35 -->
      <g style="fill: #52514e" transform="translate(409.737027 275.842188) scale(0.1 -0.1)">
       <use xlink:href="#DejaVuSans-33"/>
       <use xlink:href="#DejaVuSans-35" transform="translate(63.623047 0)"/>
      </g>
     </g>
    </g>
    <g id="xtick_8">
     <g id="line2d_17">
      <path d="M 472.791051 261.24375 
L 472.791051 33.918125 
" clip-path="url(#p3cdd677970)" style="fill: none; stroke: #dcdcd8; stroke-opacity: 0.7; stroke-width: 0.6; stroke-linecap: square"/>
     </g>
     <g id="line2d_18">
      <g>
       <use xlink:href="#me0d2d7febf" x="472.791051" y="261.24375" style="fill: #52514e; stroke: #52514e; stroke-width: 0.8"/>
      </g>
     </g>
     <g id="text_8">
      <!-- 40 -->
      <g style="fill: #52514e" transform="translate(466.428551 275.842188) scale(0.1 -0.1)">
       <defs>
        <path id="DejaVuSans-34" d="M 2419 4116 
L 825 1625 
L 2419 1625 
L 2419 4116 
z
M 2253 4666 
L 3047 4666 
L 3047 1625 
L 3713 1625 
L 3713 1100 
L 3047 1100 
L 3047 0 
L 2419 0 
L 2419 1100 
L 313 1100 
L 313 1709 
L 2253 4666 
z
" transform="scale(0.015625)"/>
       </defs>
       <use xlink:href="#DejaVuSans-34"/>
       <use xlink:href="#DejaVuSans-30" transform="translate(63.623047 0)"/>
      </g>
     </g>
    </g>
    <g id="text_9">
     <!-- modules on the controller -->
     <g style="fill: #52514e" transform="translate(204.307813 289.520313) scale(0.1 -0.1)">
      <defs>
       <path id="DejaVuSans-6d" d="M 3328 2828 
Q 3544 3216 3844 3400 
Q 4144 3584 4550 3584 
Q 5097 3584 5394 3201 
Q 5691 2819 5691 2113 
L 5691 0 
L 5113 0 
L 5113 2094 
Q 5113 2597 4934 2840 
Q 4756 3084 4391 3084 
Q 3944 3084 3684 2787 
Q 3425 2491 3425 1978 
L 3425 0 
L 2847 0 
L 2847 2094 
Q 2847 2600 2669 2842 
Q 2491 3084 2119 3084 
Q 1678 3084 1418 2786 
Q 1159 2488 1159 1978 
L 1159 0 
L 581 0 
L 581 3500 
L 1159 3500 
L 1159 2956 
Q 1356 3278 1631 3431 
Q 1906 3584 2284 3584 
Q 2666 3584 2933 3390 
Q 3200 3197 3328 2828 
z
" transform="scale(0.015625)"/>
       <path id="DejaVuSans-6f" d="M 1959 3097 
Q 1497 3097 1228 2736 
Q 959 2375 959 1747 
Q 959 1119 1226 758 
Q 1494 397 1959 397 
Q 2419 397 2687 759 
Q 2956 1122 2956 1747 
Q 2956 2369 2687 2733 
Q 2419 3097 1959 3097 
z
M 1959 3584 
Q 2709 3584 3137 3096 
Q 3566 2609 3566 1747 
Q 3566 888 3137 398 
Q 2709 -91 1959 -91 
Q 1206 -91 779 398 
Q 353 888 353 1747 
Q 353 2609 779 3096 
Q 1206 3584 1959 3584 
z
" transform="scale(0.015625)"/>
       <path id="DejaVuSans-64" d="M 2906 2969 
L 2906 4863 
L 3481 4863 
L 3481 0 
L 2906 0 
L 2906 525 
Q 2725 213 2448 61 
Q 2172 -91 1784 -91 
Q 1150 -91 751 415 
Q 353 922 353 1747 
Q 353 2572 751 3078 
Q 1150 3584 1784 3584 
Q 2172 3584 2448 3432 
Q 2725 3281 2906 2969 
z
M 947 1747 
Q 947 1113 1208 752 
Q 1469 391 1925 391 
Q 2381 391 2643 752 
Q 2906 1113 2906 1747 
Q 2906 2381 2643 2742 
Q 2381 3103 1925 3103 
Q 1469 3103 1208 2742 
Q 947 2381 947 1747 
z
" transform="scale(0.015625)"/>
       <path id="DejaVuSans-75" d="M 544 1381 
L 544 3500 
L 1119 3500 
L 1119 1403 
Q 1119 906 1312 657 
Q 1506 409 1894 409 
Q 2359 409 2629 706 
Q 2900 1003 2900 1516 
L 2900 3500 
L 3475 3500 
L 3475 0 
L 2900 0 
L 2900 538 
Q 2691 219 2414 64 
Q 2138 -91 1772 -91 
Q 1169 -91 856 284 
Q 544 659 544 1381 
z
M 1991 3584 
L 1991 3584 
z
" transform="scale(0.015625)"/>
       <path id="DejaVuSans-6c" d="M 603 4863 
L 1178 4863 
L 1178 0 
L 603 0 
L 603 4863 
z
" transform="scale(0.015625)"/>
       <path id="DejaVuSans-65" d="M 3597 1894 
L 3597 1613 
L 953 1613 
Q 991 1019 1311 708 
Q 1631 397 2203 397 
Q 2534 397 2845 478 
Q 3156 559 3463 722 
L 3463 178 
Q 3153 47 2828 -22 
Q 2503 -91 2169 -91 
Q 1331 -91 842 396 
Q 353 884 353 1716 
Q 353 2575 817 3079 
Q 1281 3584 2069 3584 
Q 2775 3584 3186 3129 
Q 3597 2675 3597 1894 
z
M 3022 2063 
Q 3016 2534 2758 2815 
Q 2500 3097 2075 3097 
Q 1594 3097 1305 2825 
Q 1016 2553 972 2059 
L 3022 2063 
z
" transform="scale(0.015625)"/>
       <path id="DejaVuSans-73" d="M 2834 3397 
L 2834 2853 
Q 2591 2978 2328 3040 
Q 2066 3103 1784 3103 
Q 1356 3103 1142 2972 
Q 928 2841 928 2578 
Q 928 2378 1081 2264 
Q 1234 2150 1697 2047 
L 1894 2003 
Q 2506 1872 2764 1633 
Q 3022 1394 3022 966 
Q 3022 478 2636 193 
Q 2250 -91 1575 -91 
Q 1294 -91 989 -36 
Q 684 19 347 128 
L 347 722 
Q 666 556 975 473 
Q 1284 391 1588 391 
Q 1994 391 2212 530 
Q 2431 669 2431 922 
Q 2431 1156 2273 1281 
Q 2116 1406 1581 1522 
L 1381 1569 
Q 847 1681 609 1914 
Q 372 2147 372 2553 
Q 372 3047 722 3315 
Q 1072 3584 1716 3584 
Q 2034 3584 2315 3537 
Q 2597 3491 2834 3397 
z
" transform="scale(0.015625)"/>
       <path id="DejaVuSans-20" transform="scale(0.015625)"/>
       <path id="DejaVuSans-6e" d="M 3513 2113 
L 3513 0 
L 2938 0 
L 2938 2094 
Q 2938 2591 2744 2837 
Q 2550 3084 2163 3084 
Q 1697 3084 1428 2787 
Q 1159 2491 1159 1978 
L 1159 0 
L 581 0 
L 581 3500 
L 1159 3500 
L 1159 2956 
Q 1366 3272 1645 3428 
Q 1925 3584 2291 3584 
Q 2894 3584 3203 3211 
Q 3513 2838 3513 2113 
z
" transform="scale(0.015625)"/>
       <path id="DejaVuSans-74" d="M 1172 4494 
L 1172 3500 
L 2356 3500 
L 2356 3053 
L 1172 3053 
L 1172 1153 
Q 1172 725 1289 603 
Q 1406 481 1766 481 
L 2356 481 
L 2356 0 
L 1766 0 
Q 1100 0 847 248 
Q 594 497 594 1153 
L 594 3053 
L 172 3053 
L 172 3500 
L 594 3500 
L 594 4494 
L 1172 4494 
z
" transform="scale(0.015625)"/>
       <path id="DejaVuSans-68" d="M 3513 2113 
L 3513 0 
L 2938 0 
L 2938 2094 
Q 2938 2591 2744 2837 
Q 2550 3084 2163 3084 
Q 1697 3084 1428 2787 
Q 1159 2491 1159 1978 
L 1159 0 
L 581 0 
L 581 4863 
L 1159 4863 
L 1159 2956 
Q 1366 3272 1645 3428 
Q 1925 3584 2291 3584 
Q 2894 3584 3203 3211 
Q 3513 2838 3513 2113 
z
" transform="scale(0.015625)"/>
       <path id="DejaVuSans-63" d="M 3122 3366 
L 3122 2828 
Q 2878 2963 2633 3030 
Q 2388 3097 2138 3097 
Q 1578 3097 1268 2742 
Q 959 2388 959 1747 
Q 959 1106 1268 751 
Q 1578 397 2138 397 
Q 2388 397 2633 464 
Q 2878 531 3122 666 
L 3122 134 
Q 2881 22 2623 -34 
Q 2366 -91 2075 -91 
Q 1284 -91 818 406 
Q 353 903 353 1747 
Q 353 2603 823 3093 
Q 1294 3584 2113 3584 
Q 2378 3584 2631 3529 
Q 2884 3475 3122 3366 
z
" transform="scale(0.015625)"/>
       <path id="DejaVuSans-72" d="M 2631 2963 
Q 2534 3019 2420 3045 
Q 2306 3072 2169 3072 
Q 1681 3072 1420 2755 
Q 1159 2438 1159 1844 
L 1159 0 
L 581 0 
L 581 3500 
L 1159 3500 
L 1159 2956 
Q 1341 3275 1631 3429 
Q 1922 3584 2338 3584 
Q 2397 3584 2469 3576 
Q 2541 3569 2628 3553 
L 2631 2963 
z
" transform="scale(0.015625)"/>
      </defs>
      <use xlink:href="#DejaVuSans-6d"/>
      <use xlink:href="#DejaVuSans-6f" transform="translate(97.412109 0)"/>
      <use xlink:href="#DejaVuSans-64" transform="translate(158.59375 0)"/>
      <use xlink:href="#DejaVuSans-75" transform="translate(222.070312 0)"/>
      <use xlink:href="#DejaVuSans-6c" transform="translate(285.449219 0)"/>
      <use xlink:href="#DejaVuSans-65" transform="translate(313.232422 0)"/>
      <use xlink:href="#DejaVuSans-73" transform="translate(374.755859 0)"/>
      <use xlink:href="#DejaVuSans-20" transform="translate(426.855469 0)"/>
      <use xlink:href="#DejaVuSans-6f" transform="translate(458.642578 0)"/>
      <use xlink:href="#DejaVuSans-6e" transform="translate(519.824219 0)"/>
      <use xlink:href="#DejaVuSans-20" transform="translate(583.203125 0)"/>
      <use xlink:href="#DejaVuSans-74" transform="translate(614.990234 0)"/>
      <use xlink:href="#DejaVuSans-68" transform="translate(654.199219 0)"/>
      <use xlink:href="#DejaVuSans-65" transform="translate(717.578125 0)"/>
      <use xlink:href="#DejaVuSans-20" transform="translate(779.101562 0)"/>
      <use xlink:href="#DejaVuSans-63" transform="translate(810.888672 0)"/>
      <use xlink:href="#DejaVuSans-6f" transform="translate(865.869141 0)"/>
      <use xlink:href="#DejaVuSans-6e" transform="translate(927.050781 0)"/>
      <use xlink:href="#DejaVuSans-74" transform="translate(990.429688 0)"/>
      <use xlink:href="#DejaVuSans-72" transform="translate(1029.638672 0)"/>
      <use xlink:href="#DejaVuSans-6f" transform="translate(1068.501953 0)"/>
      <use xlink:href="#DejaVuSans-6c" transform="translate(1129.683594 0)"/>
      <use xlink:href="#DejaVuSans-6c" transform="translate(1157.466797 0)"/>
      <use xlink:href="#DejaVuSans-65" transform="translate(1185.25 0)"/>
      <use xlink:href="#DejaVuSans-72" transform="translate(1246.773438 0)"/>
     </g>
    </g>
   </g>
   <g id="matplotlib.axis_2">
    <g id="ytick_1">
     <g id="line2d_19">
      <path d="M 44.203125 261.24375 
L 493.2 261.24375 
" clip-path="url(#p3cdd677970)" style="fill: none; stroke: #dcdcd8; stroke-opacity: 0.7; stroke-width: 0.6; stroke-linecap: square"/>
     </g>
     <g id="line2d_20">
      <defs>
       <path id="mce1099f2d8" d="M 0 0 
L -3.5 0 
" style="stroke: #52514e; stroke-width: 0.8"/>
      </defs>
      <g>
       <use xlink:href="#mce1099f2d8" x="44.203125" y="261.24375" style="fill: #52514e; stroke: #52514e; stroke-width: 0.8"/>
      </g>
     </g>
     <g id="text_10">
      <!-- 0 -->
      <g style="fill: #52514e" transform="translate(30.840625 265.042969) scale(0.1 -0.1)">
       <use xlink:href="#DejaVuSans-30"/>
      </g>
     </g>
    </g>
    <g id="ytick_2">
     <g id="line2d_21">
      <path d="M 44.203125 232.828047 
L 493.2 232.828047 
" clip-path="url(#p3cdd677970)" style="fill: none; stroke: #dcdcd8; stroke-opacity: 0.7; stroke-width: 0.6; stroke-linecap: square"/>
     </g>
     <g id="line2d_22">
      <g>
       <use xlink:href="#mce1099f2d8" x="44.203125" y="232.828047" style="fill: #52514e; stroke: #52514e; stroke-width: 0.8"/>
      </g>
     </g>
     <g id="text_11">
      <!-- 10 -->
      <g style="fill: #52514e" transform="translate(24.478125 236.627266) scale(0.1 -0.1)">
       <use xlink:href="#DejaVuSans-31"/>
       <use xlink:href="#DejaVuSans-30" transform="translate(63.623047 0)"/>
      </g>
     </g>
    </g>
    <g id="ytick_3">
     <g id="line2d_23">
      <path d="M 44.203125 204.412344 
L 493.2 204.412344 
" clip-path="url(#p3cdd677970)" style="fill: none; stroke: #dcdcd8; stroke-opacity: 0.7; stroke-width: 0.6; stroke-linecap: square"/>
     </g>
     <g id="line2d_24">
      <g>
       <use xlink:href="#mce1099f2d8" x="44.203125" y="204.412344" style="fill: #52514e; stroke: #52514e; stroke-width: 0.8"/>
      </g>
     </g>
     <g id="text_12">
      <!-- 20 -->
      <g style="fill: #52514e" transform="translate(24.478125 208.211563) scale(0.1 -0.1)">
       <use xlink:href="#DejaVuSans-32"/>
       <use xlink:href="#DejaVuSans-30" transform="translate(63.623047 0)"/>
      </g>
     </g>
    </g>
    <g id="ytick_4">
     <g id="line2d_25">
      <path d="M 44.203125 175.996641 
L 493.2 175.996641 
" clip-path="url(#p3cdd677970)" style="fill: none; stroke: #dcdcd8; stroke-opacity: 0.7; stroke-width: 0.6; stroke-linecap: square"/>
     </g>
     <g id="line2d_26">
      <g>
       <use xlink:href="#mce1099f2d8" x="44.203125" y="175.996641" style="fill: #52514e; stroke: #52514e; stroke-width: 0.8"/>
      </g>
     </g>
     <g id="text_13">
      <!-- 30 -->
      <g style="fill: #52514e" transform="translate(24.478125 179.795859) scale(0.1 -0.1)">
       <use xlink:href="#DejaVuSans-33"/>
       <use xlink:href="#DejaVuSans-30" transform="translate(63.623047 0)"/>
      </g>
     </g>
    </g>
    <g id="ytick_5">
     <g id="line2d_27">
      <path d="M 44.203125 147.580938 
L 493.2 147.580938 
" clip-path="url(#p3cdd677970)" style="fill: none; stroke: #dcdcd8; stroke-opacity: 0.7; stroke-width: 0.6; stroke-linecap: square"/>
     </g>
     <g id="line2d_28">
      <g>
       <use xlink:href="#mce1099f2d8" x="44.203125" y="147.580938" style="fill: #52514e; stroke: #52514e; stroke-width: 0.8"/>
      </g>
     </g>
     <g id="text_14">
      <!-- 40 -->
      <g style="fill: #52514e" transform="translate(24.478125 151.380156) scale(0.1 -0.1)">
       <use xlink:href="#DejaVuSans-34"/>
       <use xlink:href="#DejaVuSans-30" transform="translate(63.623047 0)"/>
      </g>
     </g>
    </g>
    <g id="ytick_6">
     <g id="line2d_29">
      <path d="M 44.203125 119.165234 
L 493.2 119.165234 
" clip-path="url(#p3cdd677970)" style="fill: none; stroke: #dcdcd8; stroke-opacity: 0.7; stroke-width: 0.6; stroke-linecap: square"/>
     </g>
     <g id="line2d_30">
      <g>
       <use xlink:href="#mce1099f2d8" x="44.203125" y="119.165234" style="fill: #52514e; stroke: #52514e; stroke-width: 0.8"/>
      </g>
     </g>
     <g id="text_15">
      <!-- 50 -->
      <g style="fill: #52514e" transform="translate(24.478125 122.964453) scale(0.1 -0.1)">
       <use xlink:href="#DejaVuSans-35"/>
       <use xlink:href="#DejaVuSans-30" transform="translate(63.623047 0)"/>
      </g>
     </g>
    </g>
    <g id="ytick_7">
     <g id="line2d_31">
      <path d="M 44.203125 90.749531 
L 493.2 90.749531 
" clip-path="url(#p3cdd677970)" style="fill: none; stroke: #dcdcd8; stroke-opacity: 0.7; stroke-width: 0.6; stroke-linecap: square"/>
     </g>
     <g id="line2d_32">
      <g>
       <use xlink:href="#mce1099f2d8" x="44.203125" y="90.749531" style="fill: #52514e; stroke: #52514e; stroke-width: 0.8"/>
      </g>
     </g>
     <g id="text_16">
      <!-- 60 -->
      <g style="fill: #52514e" transform="translate(24.478125 94.54875) scale(0.1 -0.1)">
       <defs>
        <path id="DejaVuSans-36" d="M 2113 2584 
Q 1688 2584 1439 2293 
Q 1191 2003 1191 1497 
Q 1191 994 1439 701 
Q 1688 409 2113 409 
Q 2538 409 2786 701 
Q 3034 994 3034 1497 
Q 3034 2003 2786 2293 
Q 2538 2584 2113 2584 
z
M 3366 4563 
L 3366 3988 
Q 3128 4100 2886 4159 
Q 2644 4219 2406 4219 
Q 1781 4219 1451 3797 
Q 1122 3375 1075 2522 
Q 1259 2794 1537 2939 
Q 1816 3084 2150 3084 
Q 2853 3084 3261 2657 
Q 3669 2231 3669 1497 
Q 3669 778 3244 343 
Q 2819 -91 2113 -91 
Q 1303 -91 875 529 
Q 447 1150 447 2328 
Q 447 3434 972 4092 
Q 1497 4750 2381 4750 
Q 2619 4750 2861 4703 
Q 3103 4656 3366 4563 
z
" transform="scale(0.015625)"/>
       </defs>
       <use xlink:href="#DejaVuSans-36"/>
       <use xlink:href="#DejaVuSans-30" transform="translate(63.623047 0)"/>
      </g>
     </g>
    </g>
    <g id="ytick_8">
     <g id="line2d_33">
      <path d="M 44.203125 62.333828 
L 493.2 62.333828 
" clip-path="url(#p3cdd677970)" style="fill: none; stroke: #dcdcd8; stroke-opacity: 0.7; stroke-width: 0.6; stroke-linecap: square"/>
     </g>
     <g id="line2d_34">
      <g>
       <use xlink:href="#mce1099f2d8" x="44.203125" y="62.333828" style="fill: #52514e; stroke: #52514e; stroke-width: 0.8"/>
      </g>
     </g>
     <g id="text_17">
      <!-- 70 -->
      <g style="fill: #52514e" transform="translate(24.478125 66.133047) scale(0.1 -0.1)">
       <defs>
        <path id="DejaVuSans-37" d="M 525 4666 
L 3525 4666 
L 3525 4397 
L 1831 0 
L 1172 0 
L 2766 4134 
L 525 4134 
L 525 4666 
z
" transform="scale(0.015625)"/>
       </defs>
       <use xlink:href="#DejaVuSans-37"/>
       <use xlink:href="#DejaVuSans-30" transform="translate(63.623047 0)"/>
      </g>
     </g>
    </g>
    <g id="ytick_9">
     <g id="line2d_35">
      <path d="M 44.203125 33.918125 
L 493.2 33.918125 
" clip-path="url(#p3cdd677970)" style="fill: none; stroke: #dcdcd8; stroke-opacity: 0.7; stroke-width: 0.6; stroke-linecap: square"/>
     </g>
     <g id="line2d_36">
      <g>
       <use xlink:href="#mce1099f2d8" x="44.203125" y="33.918125" style="fill: #52514e; stroke: #52514e; stroke-width: 0.8"/>
      </g>
     </g>
     <g id="text_18">
      <!-- 80 -->
      <g style="fill: #52514e" transform="translate(24.478125 37.717344) scale(0.1 -0.1)">
       <defs>
        <path id="DejaVuSans-38" d="M 2034 2216 
Q 1584 2216 1326 1975 
Q 1069 1734 1069 1313 
Q 1069 891 1326 650 
Q 1584 409 2034 409 
Q 2484 409 2743 651 
Q 3003 894 3003 1313 
Q 3003 1734 2745 1975 
Q 2488 2216 2034 2216 
z
M 1403 2484 
Q 997 2584 770 2862 
Q 544 3141 544 3541 
Q 544 4100 942 4425 
Q 1341 4750 2034 4750 
Q 2731 4750 3128 4425 
Q 3525 4100 3525 3541 
Q 3525 3141 3298 2862 
Q 3072 2584 2669 2484 
Q 3125 2378 3379 2068 
Q 3634 1759 3634 1313 
Q 3634 634 3220 271 
Q 2806 -91 2034 -91 
Q 1263 -91 848 271 
Q 434 634 434 1313 
Q 434 1759 690 2068 
Q 947 2378 1403 2484 
z
M 1172 3481 
Q 1172 3119 1398 2916 
Q 1625 2713 2034 2713 
Q 2441 2713 2670 2916 
Q 2900 3119 2900 3481 
Q 2900 3844 2670 4047 
Q 2441 4250 2034 4250 
Q 1625 4250 1398 4047 
Q 1172 3844 1172 3481 
z
" transform="scale(0.015625)"/>
       </defs>
       <use xlink:href="#DejaVuSans-38"/>
       <use xlink:href="#DejaVuSans-30" transform="translate(63.623047 0)"/>
      </g>
     </g>
    </g>
    <g id="text_19">
     <!-- brightness (% of full white) -->
     <g style="fill: #52514e" transform="translate(18.398438 215.17625) rotate(-90) scale(0.1 -0.1)">
      <defs>
       <path id="DejaVuSans-62" d="M 3116 1747 
Q 3116 2381 2855 2742 
Q 2594 3103 2138 3103 
Q 1681 3103 1420 2742 
Q 1159 2381 1159 1747 
Q 1159 1113 1420 752 
Q 1681 391 2138 391 
Q 2594 391 2855 752 
Q 3116 1113 3116 1747 
z
M 1159 2969 
Q 1341 3281 1617 3432 
Q 1894 3584 2278 3584 
Q 2916 3584 3314 3078 
Q 3713 2572 3713 1747 
Q 3713 922 3314 415 
Q 2916 -91 2278 -91 
Q 1894 -91 1617 61 
Q 1341 213 1159 525 
L 1159 0 
L 581 0 
L 581 4863 
L 1159 4863 
L 1159 2969 
z
" transform="scale(0.015625)"/>
       <path id="DejaVuSans-69" d="M 603 3500 
L 1178 3500 
L 1178 0 
L 603 0 
L 603 3500 
z
M 603 4863 
L 1178 4863 
L 1178 4134 
L 603 4134 
L 603 4863 
z
" transform="scale(0.015625)"/>
       <path id="DejaVuSans-67" d="M 2906 1791 
Q 2906 2416 2648 2759 
Q 2391 3103 1925 3103 
Q 1463 3103 1205 2759 
Q 947 2416 947 1791 
Q 947 1169 1205 825 
Q 1463 481 1925 481 
Q 2391 481 2648 825 
Q 2906 1169 2906 1791 
z
M 3481 434 
Q 3481 -459 3084 -895 
Q 2688 -1331 1869 -1331 
Q 1566 -1331 1297 -1286 
Q 1028 -1241 775 -1147 
L 775 -588 
Q 1028 -725 1275 -790 
Q 1522 -856 1778 -856 
Q 2344 -856 2625 -561 
Q 2906 -266 2906 331 
L 2906 616 
Q 2728 306 2450 153 
Q 2172 0 1784 0 
Q 1141 0 747 490 
Q 353 981 353 1791 
Q 353 2603 747 3093 
Q 1141 3584 1784 3584 
Q 2172 3584 2450 3431 
Q 2728 3278 2906 2969 
L 2906 3500 
L 3481 3500 
L 3481 434 
z
" transform="scale(0.015625)"/>
       <path id="DejaVuSans-28" d="M 1984 4856 
Q 1566 4138 1362 3434 
Q 1159 2731 1159 2009 
Q 1159 1288 1364 580 
Q 1569 -128 1984 -844 
L 1484 -844 
Q 1016 -109 783 600 
Q 550 1309 550 2009 
Q 550 2706 781 3412 
Q 1013 4119 1484 4856 
L 1984 4856 
z
" transform="scale(0.015625)"/>
       <path id="DejaVuSans-25" d="M 4653 2053 
Q 4381 2053 4226 1822 
Q 4072 1591 4072 1178 
Q 4072 772 4226 539 
Q 4381 306 4653 306 
Q 4919 306 5073 539 
Q 5228 772 5228 1178 
Q 5228 1588 5073 1820 
Q 4919 2053 4653 2053 
z
M 4653 2450 
Q 5147 2450 5437 2106 
Q 5728 1763 5728 1178 
Q 5728 594 5436 251 
Q 5144 -91 4653 -91 
Q 4153 -91 3862 251 
Q 3572 594 3572 1178 
Q 3572 1766 3864 2108 
Q 4156 2450 4653 2450 
z
M 1428 4353 
Q 1159 4353 1004 4120 
Q 850 3888 850 3481 
Q 850 3069 1003 2837 
Q 1156 2606 1428 2606 
Q 1700 2606 1854 2837 
Q 2009 3069 2009 3481 
Q 2009 3884 1853 4118 
Q 1697 4353 1428 4353 
z
M 4250 4750 
L 4750 4750 
L 1831 -91 
L 1331 -91 
L 4250 4750 
z
M 1428 4750 
Q 1922 4750 2215 4408 
Q 2509 4066 2509 3481 
Q 2509 2891 2217 2550 
Q 1925 2209 1428 2209 
Q 931 2209 642 2551 
Q 353 2894 353 3481 
Q 353 4063 643 4406 
Q 934 4750 1428 4750 
z
" transform="scale(0.015625)"/>
       <path id="DejaVuSans-66" d="M 2375 4863 
L 2375 4384 
L 1825 4384 
Q 1516 4384 1395 4259 
Q 1275 4134 1275 3809 
L 1275 3500 
L 2222 3500 
L 2222 3053 
L 1275 3053 
L 1275 0 
L 697 0 
L 697 3053 
L 147 3053 
L 147 3500 
L 697 3500 
L 697 3744 
Q 697 4328 969 4595 
Q 1241 4863 1831 4863 
L 2375 4863 
z
" transform="scale(0.015625)"/>
       <path id="DejaVuSans-77" d="M 269 3500 
L 844 3500 
L 1563 769 
L 2278 3500 
L 2956 3500 
L 3675 769 
L 4391 3500 
L 4966 3500 
L 4050 0 
L 3372 0 
L 2619 2869 
L 1863 0 
L 1184 0 
L 269 3500 
z
" transform="scale(0.015625)"/>
       <path id="DejaVuSans-29" d="M 513 4856 
L 1013 4856 
Q 1481 4119 1714 3412 
Q 1947 2706 1947 2009 
Q 1947 1309 1714 600 
Q 1481 -109 1013 -844 
L 513 -844 
Q 928 -128 1133 580 
Q 1338 1288 1338 2009 
Q 1338 2731 1133 3434 
Q 928 4138 513 4856 
z
" transform="scale(0.015625)"/>
      </defs>
      <use xlink:href="#DejaVuSans-62"/>
      <use xlink:href="#DejaVuSans-72" transform="translate(63.476562 0)"/>
      <use xlink:href="#DejaVuSans-69" transform="translate(104.589844 0)"/>
      <use xlink:href="#DejaVuSans-67" transform="translate(132.373047 0)"/>
      <use xlink:href="#DejaVuSans-68" transform="translate(195.849609 0)"/>
      <use xlink:href="#DejaVuSans-74" transform="translate(259.228516 0)"/>
      <use xlink:href="#DejaVuSans-6e" transform="translate(298.4375 0)"/>
      <use xlink:href="#DejaVuSans-65" transform="translate(361.816406 0)"/>
      <use xlink:href="#DejaVuSans-73" transform="translate(423.339844 0)"/>
      <use xlink:href="#DejaVuSans-73" transform="translate(475.439453 0)"/>
      <use xlink:href="#DejaVuSans-20" transform="translate(527.539062 0)"/>
      <use xlink:href="#DejaVuSans-28" transform="translate(559.326172 0)"/>
      <use xlink:href="#DejaVuSans-25" transform="translate(598.339844 0)"/>
      <use xlink:href="#DejaVuSans-20" transform="translate(693.359375 0)"/>
      <use xlink:href="#DejaVuSans-6f" transform="translate(725.146484 0)"/>
      <use xlink:href="#DejaVuSans-66" transform="translate(786.328125 0)"/>
      <use xlink:href="#DejaVuSans-20" transform="translate(821.533203 0)"/>
      <use xlink:href="#DejaVuSans-66" transform="translate(853.320312 0)"/>
      <use xlink:href="#DejaVuSans-75" transform="translate(888.525391 0)"/>
      <use xlink:href="#DejaVuSans-6c" transform="translate(951.904297 0)"/>
      <use xlink:href="#DejaVuSans-6c" transform="translate(979.6875 0)"/>
      <use xlink:href="#DejaVuSans-20" transform="translate(1007.470703 0)"/>
      <use xlink:href="#DejaVuSans-77" transform="translate(1039.257812 0)"/>
      <use xlink:href="#DejaVuSans-68" transform="translate(1121.044922 0)"/>
      <use xlink:href="#DejaVuSans-69" transform="translate(1184.423828 0)"/>
      <use xlink:href="#DejaVuSans-74" transform="translate(1212.207031 0)"/>
      <use xlink:href="#DejaVuSans-65" transform="translate(1251.416016 0)"/>
      <use xlink:href="#DejaVuSans-29" transform="translate(1312.939453 0)"/>
     </g>
    </g>
   </g>
   <g id="line2d_37">
    <path d="M 64.612074 62.333828 
L 75.950379 62.333828 
L 87.288684 62.333828 
L 98.626989 62.333828 
L 109.965294 62.333828 
L 121.303598 62.333828 
L 132.641903 62.333828 
L 143.980208 62.333828 
L 155.318513 62.333828 
L 166.656818 62.333828 
L 177.995123 70.960024 
L 189.333428 83.645605 
L 200.671733 94.74549 
L 212.010038 104.539505 
L 223.348343 113.245296 
L 234.686648 121.034689 
L 246.024953 128.045142 
L 257.363258 134.387932 
L 268.701563 140.154106 
L 280.039867 145.418873 
L 291.378172 150.24491 
L 302.716477 154.684863 
L 314.054782 158.783282 
L 325.393087 162.578114 
L 336.731392 166.101887 
L 348.069697 169.382641 
L 359.408002 172.444678 
L 370.746307 175.309164 
L 382.084612 177.99462 
L 393.422917 180.517321 
L 404.761222 182.891627 
L 416.099527 185.130259 
L 427.437831 187.244523 
L 438.776136 189.244502 
L 450.114441 191.139219 
L 461.452746 192.936771 
L 472.791051 194.644446 
" clip-path="url(#p3cdd677970)" style="fill: none; stroke: #2a78d6; stroke-width: 2; stroke-linecap: square"/>
   </g>
   <g id="line2d_38">
    <path d="M 64.612074 62.333828 
L 75.950379 62.333828 
L 87.288684 62.333828 
L 98.626989 62.333828 
L 109.965294 62.333828 
L 121.303598 62.333828 
L 132.641903 62.333828 
L 143.980208 62.333828 
L 155.318513 62.333828 
L 166.656818 62.333828 
L 177.995123 62.333828 
L 189.333428 62.333828 
L 200.671733 62.333828 
L 212.010038 62.333828 
L 223.348343 69.393903 
L 234.686648 79.491263 
L 246.024953 88.578887 
L 257.363258 96.801024 
L 268.701563 104.275693 
L 280.039867 111.100391 
L 291.378172 117.356364 
L 302.716477 123.11186 
L 314.054782 128.424625 
L 325.393087 133.343852 
L 336.731392 137.911705 
L 348.069697 142.164534 
L 359.408002 146.133842 
L 370.746307 149.847064 
L 382.084612 153.328211 
L 393.422917 156.598379 
L 404.761222 159.676184 
L 416.099527 162.578114 
L 427.437831 165.318826 
L 438.776136 167.911392 
L 450.114441 170.367506 
L 461.452746 172.697667 
L 472.791051 174.911319 
" clip-path="url(#p3cdd677970)" style="fill: none; stroke: #eb6834; stroke-width: 2; stroke-linecap: square"/>
   </g>
   <g id="line2d_39">
    <path d="M 64.612074 62.333828 
L 75.950379 62.333828 
L 87.288684 62.333828 
L 98.626989 62.333828 
L 109.965294 62.333828 
L 121.303598 62.333828 
L 132.641903 62.333828 
L 143.980208 62.333828 
L 155.318513 62.333828 
L 166.656818 62.333828 
L 177.995123 62.333828 
L 189.333428 62.333828 
L 200.671733 62.333828 
L 212.010038 62.333828 
L 223.348343 62.333828 
L 234.686648 62.333828 
L 246.024953 62.333828 
L 257.363258 62.333828 
L 268.701563 62.333828 
L 280.039867 62.333828 
L 291.378172 68.023546 
L 302.716477 75.752355 
L 314.054782 82.886639 
L 325.393087 89.492458 
L 336.731392 95.626433 
L 348.069697 101.337375 
L 359.408002 106.667587 
L 370.746307 111.653915 
L 382.084612 116.328597 
L 393.422917 120.719966 
L 404.761222 124.853018 
L 416.099527 128.749896 
L 427.437831 132.430281 
L 438.776136 135.911726 
L 450.114441 139.209937 
L 461.452746 142.339009 
L 472.791051 145.311628 
" clip-path="url(#p3cdd677970)" style="fill: none; stroke-dasharray: 7.4,3.2; stroke-dashoffset: 0; stroke: #1baf7a; stroke-width: 2"/>
   </g>
   <g id="patch_3">
    <path d="M 44.203125 261.24375 
L 44.203125 33.918125 
" style="fill: none; stroke: #dcdcd8; stroke-width: 0.8; stroke-linejoin: miter; stroke-linecap: square"/>
   </g>
   <g id="patch_4">
    <path d="M 44.203125 261.24375 
L 493.2 261.24375 
" style="fill: none; stroke: #dcdcd8; stroke-width: 0.8; stroke-linejoin: miter; stroke-linecap: square"/>
   </g>
   <g id="text_20">
    <!-- module thermal ceiling 70% -->
    <g style="fill: #52514e" transform="translate(48.203125 58.333828) scale(0.09 -0.09)">
     <defs>
      <path id="DejaVuSans-61" d="M 2194 1759 
Q 1497 1759 1228 1600 
Q 959 1441 959 1056 
Q 959 750 1161 570 
Q 1363 391 1709 391 
Q 2188 391 2477 730 
Q 2766 1069 2766 1631 
L 2766 1759 
L 2194 1759 
z
M 3341 1997 
L 3341 0 
L 2766 0 
L 2766 531 
Q 2569 213 2275 61 
Q 1981 -91 1556 -91 
Q 1019 -91 701 211 
Q 384 513 384 1019 
Q 384 1609 779 1909 
Q 1175 2209 1959 2209 
L 2766 2209 
L 2766 2266 
Q 2766 2663 2505 2880 
Q 2244 3097 1772 3097 
Q 1472 3097 1187 3025 
Q 903 2953 641 2809 
L 641 3341 
Q 956 3463 1253 3523 
Q 1550 3584 1831 3584 
Q 2591 3584 2966 3190 
Q 3341 2797 3341 1997 
z
" transform="scale(0.015625)"/>
     </defs>
     <use xlink:href="#DejaVuSans-6d"/>
     <use xlink:href="#DejaVuSans-6f" transform="translate(97.412109 0)"/>
     <use xlink:href="#DejaVuSans-64" transform="translate(158.59375 0)"/>
     <use xlink:href="#DejaVuSans-75" transform="translate(222.070312 0)"/>
     <use xlink:href="#DejaVuSans-6c" transform="translate(285.449219 0)"/>
     <use xlink:href="#DejaVuSans-65" transform="translate(313.232422 0)"/>
     <use xlink:href="#DejaVuSans-20" transform="translate(374.755859 0)"/>
     <use xlink:href="#DejaVuSans-74" transform="translate(406.542969 0)"/>
     <use xlink:href="#DejaVuSans-68" transform="translate(445.751953 0)"/>
     <use xlink:href="#DejaVuSans-65" transform="translate(509.130859 0)"/>
     <use xlink:href="#DejaVuSans-72" transform="translate(570.654297 0)"/>
     <use xlink:href="#DejaVuSans-6d" transform="translate(610.017578 0)"/>
     <use xlink:href="#DejaVuSans-61" transform="translate(707.429688 0)"/>
     <use xlink:href="#DejaVuSans-6c" transform="translate(768.708984 0)"/>
     <use xlink:href="#DejaVuSans-20" transform="translate(796.492188 0)"/>
     <use xlink:href="#DejaVuSans-63" transform="translate(828.279297 0)"/>
     <use xlink:href="#DejaVuSans-65" transform="translate(883.259766 0)"/>
     <use xlink:href="#DejaVuSans-69" transform="translate(944.783203 0)"/>
     <use xlink:href="#DejaVuSans-6c" transform="translate(972.566406 0)"/>
     <use xlink:href="#DejaVuSans-69" transform="translate(1000.349609 0)"/>
     <use xlink:href="#DejaVuSans-6e" transform="translate(1028.132812 0)"/>
     <use xlink:href="#DejaVuSans-67" transform="translate(1091.511719 0)"/>
     <use xlink:href="#DejaVuSans-20" transform="translate(1154.988281 0)"/>
     <use xlink:href="#DejaVuSans-37" transform="translate(1186.775391 0)"/>
     <use xlink:href="#DejaVuSans-30" transform="translate(1250.398438 0)"/>
     <use xlink:href="#DejaVuSans-25" transform="translate(1314.021484 0)"/>
    </g>
   </g>
   <g id="text_21">
    <!--   20 modules -->
    <g style="fill: #eb6834" transform="translate(252.024953 222.433156) scale(0.09 -0.09)">
     <use xlink:href="#DejaVuSans-20"/>
     <use xlink:href="#DejaVuSans-20" transform="translate(31.787109 0)"/>
     <use xlink:href="#DejaVuSans-32" transform="translate(63.574219 0)"/>
     <use xlink:href="#DejaVuSans-30" transform="translate(127.197266 0)"/>
     <use xlink:href="#DejaVuSans-20" transform="translate(190.820312 0)"/>
     <use xlink:href="#DejaVuSans-6d" transform="translate(222.607422 0)"/>
     <use xlink:href="#DejaVuSans-6f" transform="translate(320.019531 0)"/>
     <use xlink:href="#DejaVuSans-64" transform="translate(381.201172 0)"/>
     <use xlink:href="#DejaVuSans-75" transform="translate(444.677734 0)"/>
     <use xlink:href="#DejaVuSans-6c" transform="translate(508.056641 0)"/>
     <use xlink:href="#DejaVuSans-65" transform="translate(535.839844 0)"/>
     <use xlink:href="#DejaVuSans-73" transform="translate(597.363281 0)"/>
    </g>
    <!--   (target) -->
    <g style="fill: #eb6834" transform="translate(252.024953 232.511188) scale(0.09 -0.09)">
     <use xlink:href="#DejaVuSans-20"/>
     <use xlink:href="#DejaVuSans-20" transform="translate(31.787109 0)"/>
     <use xlink:href="#DejaVuSans-28" transform="translate(63.574219 0)"/>
     <use xlink:href="#DejaVuSans-74" transform="translate(102.587891 0)"/>
     <use xlink:href="#DejaVuSans-61" transform="translate(141.796875 0)"/>
     <use xlink:href="#DejaVuSans-72" transform="translate(203.076172 0)"/>
     <use xlink:href="#DejaVuSans-67" transform="translate(242.439453 0)"/>
     <use xlink:href="#DejaVuSans-65" transform="translate(305.916016 0)"/>
     <use xlink:href="#DejaVuSans-74" transform="translate(367.439453 0)"/>
     <use xlink:href="#DejaVuSans-29" transform="translate(406.648438 0)"/>
    </g>
   </g>
   <g id="text_22">
    <!-- Sustained brightness falls with module count -->
    <g style="fill: #0b0b0b" transform="translate(44.203125 19.918125) scale(0.12 -0.12)">
     <defs>
      <path id="DejaVuSans-53" d="M 3425 4513 
L 3425 3897 
Q 3066 4069 2747 4153 
Q 2428 4238 2131 4238 
Q 1616 4238 1336 4038 
Q 1056 3838 1056 3469 
Q 1056 3159 1242 3001 
Q 1428 2844 1947 2747 
L 2328 2669 
Q 3034 2534 3370 2195 
Q 3706 1856 3706 1288 
Q 3706 609 3251 259 
Q 2797 -91 1919 -91 
Q 1588 -91 1214 -16 
Q 841 59 441 206 
L 441 856 
Q 825 641 1194 531 
Q 1563 422 1919 422 
Q 2459 422 2753 634 
Q 3047 847 3047 1241 
Q 3047 1584 2836 1778 
Q 2625 1972 2144 2069 
L 1759 2144 
Q 1053 2284 737 2584 
Q 422 2884 422 3419 
Q 422 4038 858 4394 
Q 1294 4750 2059 4750 
Q 2388 4750 2728 4690 
Q 3069 4631 3425 4513 
z
" transform="scale(0.015625)"/>
     </defs>
     <use xlink:href="#DejaVuSans-53"/>
     <use xlink:href="#DejaVuSans-75" transform="translate(63.476562 0)"/>
     <use xlink:href="#DejaVuSans-73" transform="translate(126.855469 0)"/>
     <use xlink:href="#DejaVuSans-74" transform="translate(178.955078 0)"/>
     <use xlink:href="#DejaVuSans-61" transform="translate(218.164062 0)"/>
     <use xlink:href="#DejaVuSans-69" transform="translate(279.443359 0)"/>
     <use xlink:href="#DejaVuSans-6e" transform="translate(307.226562 0)"/>
     <use xlink:href="#DejaVuSans-65" transform="translate(370.605469 0)"/>
     <use xlink:href="#DejaVuSans-64" transform="translate(432.128906 0)"/>
     <use xlink:href="#DejaVuSans-20" transform="translate(495.605469 0)"/>
     <use xlink:href="#DejaVuSans-62" transform="translate(527.392578 0)"/>
     <use xlink:href="#DejaVuSans-72" transform="translate(590.869141 0)"/>
     <use xlink:href="#DejaVuSans-69" transform="translate(631.982422 0)"/>
     <use xlink:href="#DejaVuSans-67" transform="translate(659.765625 0)"/>
     <use xlink:href="#DejaVuSans-68" transform="translate(723.242188 0)"/>
     <use xlink:href="#DejaVuSans-74" transform="translate(786.621094 0)"/>
     <use xlink:href="#DejaVuSans-6e" transform="translate(825.830078 0)"/>
     <use xlink:href="#DejaVuSans-65" transform="translate(889.208984 0)"/>
     <use xlink:href="#DejaVuSans-73" transform="translate(950.732422 0)"/>
     <use xlink:href="#DejaVuSans-73" transform="translate(1002.832031 0)"/>
     <use xlink:href="#DejaVuSans-20" transform="translate(1054.931641 0)"/>
     <use xlink:href="#DejaVuSans-66" transform="translate(1086.71875 0)"/>
     <use xlink:href="#DejaVuSans-61" transform="translate(1121.923828 0)"/>
     <use xlink:href="#DejaVuSans-6c" transform="translate(1183.203125 0)"/>
     <use xlink:href="#DejaVuSans-6c" transform="translate(1210.986328 0)"/>
     <use xlink:href="#DejaVuSans-73" transform="translate(1238.769531 0)"/>
     <use xlink:href="#DejaVuSans-20" transform="translate(1290.869141 0)"/>
     <use xlink:href="#DejaVuSans-77" transform="translate(1322.65625 0)"/>
     <use xlink:href="#DejaVuSans-69" transform="translate(1404.443359 0)"/>
     <use xlink:href="#DejaVuSans-74" transform="translate(1432.226562 0)"/>
     <use xlink:href="#DejaVuSans-68" transform="translate(1471.435547 0)"/>
     <use xlink:href="#DejaVuSans-20" transform="translate(1534.814453 0)"/>
     <use xlink:href="#DejaVuSans-6d" transform="translate(1566.601562 0)"/>
     <use xlink:href="#DejaVuSans-6f" transform="translate(1664.013672 0)"/>
     <use xlink:href="#DejaVuSans-64" transform="translate(1725.195312 0)"/>
     <use xlink:href="#DejaVuSans-75" transform="translate(1788.671875 0)"/>
     <use xlink:href="#DejaVuSans-6c" transform="translate(1852.050781 0)"/>
     <use xlink:href="#DejaVuSans-65" transform="translate(1879.833984 0)"/>
     <use xlink:href="#DejaVuSans-20" transform="translate(1941.357422 0)"/>
     <use xlink:href="#DejaVuSans-63" transform="translate(1973.144531 0)"/>
     <use xlink:href="#DejaVuSans-6f" transform="translate(2028.125 0)"/>
     <use xlink:href="#DejaVuSans-75" transform="translate(2089.306641 0)"/>
     <use xlink:href="#DejaVuSans-6e" transform="translate(2152.685547 0)"/>
     <use xlink:href="#DejaVuSans-74" transform="translate(2216.064453 0)"/>
    </g>
   </g>
   <g id="legend_1">
    <g id="line2d_40">
     <path d="M 53.203125 217.307813 
L 63.203125 217.307813 
L 73.203125 217.307813 
" style="fill: none; stroke: #2a78d6; stroke-width: 2; stroke-linecap: square"/>
    </g>
    <g id="text_23">
     <!-- 28 V / 140 W -->
     <g style="fill: #0b0b0b" transform="translate(81.203125 220.807813) scale(0.1 -0.1)">
      <defs>
       <path id="DejaVuSans-56" d="M 1831 0 
L 50 4666 
L 709 4666 
L 2188 738 
L 3669 4666 
L 4325 4666 
L 2547 0 
L 1831 0 
z
" transform="scale(0.015625)"/>
       <path id="DejaVuSans-2f" d="M 1625 4666 
L 2156 4666 
L 531 -594 
L 0 -594 
L 1625 4666 
z
" transform="scale(0.015625)"/>
       <path id="DejaVuSans-57" d="M 213 4666 
L 850 4666 
L 1831 722 
L 2809 4666 
L 3519 4666 
L 4500 722 
L 5478 4666 
L 6119 4666 
L 4947 0 
L 4153 0 
L 3169 4050 
L 2175 0 
L 1381 0 
L 213 4666 
z
" transform="scale(0.015625)"/>
      </defs>
      <use xlink:href="#DejaVuSans-32"/>
      <use xlink:href="#DejaVuSans-38" transform="translate(63.623047 0)"/>
      <use xlink:href="#DejaVuSans-20" transform="translate(127.246094 0)"/>
      <use xlink:href="#DejaVuSans-56" transform="translate(159.033203 0)"/>
      <use xlink:href="#DejaVuSans-20" transform="translate(227.441406 0)"/>
      <use xlink:href="#DejaVuSans-2f" transform="translate(259.228516 0)"/>
      <use xlink:href="#DejaVuSans-20" transform="translate(292.919922 0)"/>
      <use xlink:href="#DejaVuSans-31" transform="translate(324.707031 0)"/>
      <use xlink:href="#DejaVuSans-34" transform="translate(388.330078 0)"/>
      <use xlink:href="#DejaVuSans-30" transform="translate(451.953125 0)"/>
      <use xlink:href="#DejaVuSans-20" transform="translate(515.576172 0)"/>
      <use xlink:href="#DejaVuSans-57" transform="translate(547.363281 0)"/>
     </g>
    </g>
    <g id="line2d_41">
     <path d="M 53.203125 231.985938 
L 63.203125 231.985938 
L 73.203125 231.985938 
" style="fill: none; stroke: #eb6834; stroke-width: 2; stroke-linecap: square"/>
    </g>
    <g id="text_24">
     <!-- 36 V / 180 W  (chosen) -->
     <g style="fill: #0b0b0b" transform="translate(81.203125 235.485938) scale(0.1 -0.1)">
      <use xlink:href="#DejaVuSans-33"/>
      <use xlink:href="#DejaVuSans-36" transform="translate(63.623047 0)"/>
      <use xlink:href="#DejaVuSans-20" transform="translate(127.246094 0)"/>
      <use xlink:href="#DejaVuSans-56" transform="translate(159.033203 0)"/>
      <use xlink:href="#DejaVuSans-20" transform="translate(227.441406 0)"/>
      <use xlink:href="#DejaVuSans-2f" transform="translate(259.228516 0)"/>
      <use xlink:href="#DejaVuSans-20" transform="translate(292.919922 0)"/>
      <use xlink:href="#DejaVuSans-31" transform="translate(324.707031 0)"/>
      <use xlink:href="#DejaVuSans-38" transform="translate(388.330078 0)"/>
      <use xlink:href="#DejaVuSans-30" transform="translate(451.953125 0)"/>
      <use xlink:href="#DejaVuSans-20" transform="translate(515.576172 0)"/>
      <use xlink:href="#DejaVuSans-57" transform="translate(547.363281 0)"/>
      <use xlink:href="#DejaVuSans-20" transform="translate(646.240234 0)"/>
      <use xlink:href="#DejaVuSans-20" transform="translate(678.027344 0)"/>
      <use xlink:href="#DejaVuSans-28" transform="translate(709.814453 0)"/>
      <use xlink:href="#DejaVuSans-63" transform="translate(748.828125 0)"/>
      <use xlink:href="#DejaVuSans-68" transform="translate(803.808594 0)"/>
      <use xlink:href="#DejaVuSans-6f" transform="translate(867.1875 0)"/>
      <use xlink:href="#DejaVuSans-73" transform="translate(928.369141 0)"/>
      <use xlink:href="#DejaVuSans-65" transform="translate(980.46875 0)"/>
      <use xlink:href="#DejaVuSans-6e" transform="translate(1041.992188 0)"/>
      <use xlink:href="#DejaVuSans-29" transform="translate(1105.371094 0)"/>
     </g>
    </g>
    <g id="line2d_42">
     <path d="M 53.203125 246.664062 
L 63.203125 246.664062 
L 73.203125 246.664062 
" style="fill: none; stroke-dasharray: 7.4,3.2; stroke-dashoffset: 0; stroke: #1baf7a; stroke-width: 2"/>
    </g>
    <g id="text_25">
     <!-- 48 V / 240 W  (kills modules) -->
     <g style="fill: #0b0b0b" transform="translate(81.203125 250.164062) scale(0.1 -0.1)">
      <defs>
       <path id="DejaVuSans-6b" d="M 581 4863 
L 1159 4863 
L 1159 1991 
L 2875 3500 
L 3609 3500 
L 1753 1863 
L 3688 0 
L 2938 0 
L 1159 1709 
L 1159 0 
L 581 0 
L 581 4863 
z
" transform="scale(0.015625)"/>
      </defs>
      <use xlink:href="#DejaVuSans-34"/>
      <use xlink:href="#DejaVuSans-38" transform="translate(63.623047 0)"/>
      <use xlink:href="#DejaVuSans-20" transform="translate(127.246094 0)"/>
      <use xlink:href="#DejaVuSans-56" transform="translate(159.033203 0)"/>
      <use xlink:href="#DejaVuSans-20" transform="translate(227.441406 0)"/>
      <use xlink:href="#DejaVuSans-2f" transform="translate(259.228516 0)"/>
      <use xlink:href="#DejaVuSans-20" transform="translate(292.919922 0)"/>
      <use xlink:href="#DejaVuSans-32" transform="translate(324.707031 0)"/>
      <use xlink:href="#DejaVuSans-34" transform="translate(388.330078 0)"/>
      <use xlink:href="#DejaVuSans-30" transform="translate(451.953125 0)"/>
      <use xlink:href="#DejaVuSans-20" transform="translate(515.576172 0)"/>
      <use xlink:href="#DejaVuSans-57" transform="translate(547.363281 0)"/>
      <use xlink:href="#DejaVuSans-20" transform="translate(646.240234 0)"/>
      <use xlink:href="#DejaVuSans-20" transform="translate(678.027344 0)"/>
      <use xlink:href="#DejaVuSans-28" transform="translate(709.814453 0)"/>
      <use xlink:href="#DejaVuSans-6b" transform="translate(748.828125 0)"/>
      <use xlink:href="#DejaVuSans-69" transform="translate(806.738281 0)"/>
      <use xlink:href="#DejaVuSans-6c" transform="translate(834.521484 0)"/>
      <use xlink:href="#DejaVuSans-6c" transform="translate(862.304688 0)"/>
      <use xlink:href="#DejaVuSans-73" transform="translate(890.087891 0)"/>
      <use xlink:href="#DejaVuSans-20" transform="translate(942.1875 0)"/>
      <use xlink:href="#DejaVuSans-6d" transform="translate(973.974609 0)"/>
      <use xlink:href="#DejaVuSans-6f" transform="translate(1071.386719 0)"/>
      <use xlink:href="#DejaVuSans-64" transform="translate(1132.568359 0)"/>
      <use xlink:href="#DejaVuSans-75" transform="translate(1196.044922 0)"/>
      <use xlink:href="#DejaVuSans-6c" transform="translate(1259.423828 0)"/>
      <use xlink:href="#DejaVuSans-65" transform="translate(1287.207031 0)"/>
      <use xlink:href="#DejaVuSans-73" transform="translate(1348.730469 0)"/>
      <use xlink:href="#DejaVuSans-29" transform="translate(1400.830078 0)"/>
     </g>
    </g>
   </g>
  </g>
 </g>
 <defs>
  <clipPath id="p3cdd677970">
   <rect x="44.203125" y="33.918125" width="448.996875" height="227.325625"/>
  </clipPath>
 </defs>
</svg>
